<?xml version="1.0" encoding="iso-8859-1"?>
<!-- Generator: Adobe Illustrator 19.0.0, SVG Export Plug-In . SVG Version: 6.00 Build 0)  -->
<svg xmlns="http://www.w3.org/2000/svg" xmlns:xlink="http://www.w3.org/1999/xlink" version="1.1" id="Layer_1" x="0px" y="0px" viewBox="0 0 512 512" style="enable-background:new 0 0 512 512;" xml:space="preserve" width="512px" height="512px">
<g>
	<g>
		<path d="M252.761,272.572c-24.074-21.069-46.787-28.592-67.564-22.329c-25.352,7.643-40.12,34.153-47.12,50.852    c-19.926-16.208-40.5-22.907-61.333-19.898c-45.777,6.588-74.388,58.148-75.583,60.338c-2.509,4.593-0.815,10.343,3.778,12.857    c1.445,0.787,3,1.162,4.537,1.162c3.352,0,6.602-1.783,8.324-4.926c0.25-0.454,25.352-45.486,61.703-50.671    c18.37-2.639,37.222,5.579,56.018,24.38c2.389,2.393,5.87,3.319,9.129,2.458c3.259-0.861,5.824-3.403,6.722-6.657    c0.12-0.435,12.305-43.639,39.342-51.75c14.065-4.222,30.741,1.986,49.565,18.453c3.926,3.44,9.907,3.051,13.379-0.889    C257.103,282.007,256.705,276.021,252.761,272.572z" fill="#333333"/>
	</g>
</g>
<g>
	<g>
		<path d="M214.52,101.633c-17.213-13.773-32.722-18.166-45.99-13.083c-11.241,4.296-17.852,14.259-21.62,22.93    c-12.009-8.491-24.102-11.634-36.065-9.315c-28.129,5.417-43.083,39.606-43.703,41.06c-2.065,4.815,0.167,10.389,4.982,12.449    c1.213,0.523,2.482,0.773,3.731,0.773c3.676,0,7.176-2.157,8.713-5.75c0.111-0.264,11.796-26.43,29.861-29.912    c9.259-1.773,19.555,2.903,30.574,13.917c2.509,2.505,6.204,3.398,9.574,2.319c3.37-1.069,5.87-3.949,6.482-7.435    c0.861-4.977,5.333-19.949,14.278-23.338c8.204-3.125,19.389,3.829,27.333,10.19c4.111,3.287,10.055,2.611,13.333-1.481    C219.27,110.869,218.604,104.901,214.52,101.633z" fill="#333333"/>
	</g>
</g>
<g>
	<g>
		<path d="M483.509,487.353c-3.25-32.477-14.426-53.625-33.222-62.847c-18.435-9.046-39.259-3.88-52.648,1.491    c-2.537-31.134-13.389-52.805-32.361-64.527c-37.768-23.347-92.24,3.426-94.555,4.569c-4.685,2.343-6.583,8.037-4.241,12.722    c2.352,4.681,8.037,6.574,12.722,4.241c13.046-6.528,52.185-20.204,76.101-5.403c15.898,9.819,23.954,31.115,23.954,63.291    c0,3.44,1.87,6.602,4.88,8.278c3.018,1.69,6.704,1.579,9.611-0.227c0.278-0.176,28.278-17.236,48.231-7.389    c12.491,6.162,20.111,22.204,22.657,47.69c0.491,4.889,4.611,8.537,9.426,8.537c0.315,0,0.63-0.014,0.954-0.046    C480.232,497.209,484.028,492.566,483.509,487.353z" fill="#333333"/>
	</g>
</g>
<g>
	<g>
		<path d="M379.26,14.222c-73.194,0-132.74,59.546-132.74,132.74s59.546,132.74,132.74,132.74S512,220.155,512,146.961    S452.454,14.222,379.26,14.222z M379.26,260.738c-62.74,0-113.777-51.041-113.777-113.777S316.52,33.184,379.26,33.184    c62.74,0,113.777,51.041,113.777,113.777S442.001,260.738,379.26,260.738z" fill="#333333"/>
	</g>
</g>
<g>
</g>
<g>
</g>
<g>
</g>
<g>
</g>
<g>
</g>
<g>
</g>
<g>
</g>
<g>
</g>
<g>
</g>
<g>
</g>
<g>
</g>
<g>
</g>
<g>
</g>
<g>
</g>
<g>
</g>
</svg>
