<?xml version="1.0" encoding="UTF-8"?>
<svg width="47px" height="47px" viewBox="0 0 47 47" version="1.1" xmlns="http://www.w3.org/2000/svg" xmlns:xlink="http://www.w3.org/1999/xlink">
    <!-- Generator: Sketch 46.2 (44496) - http://www.bohemiancoding.com/sketch -->
    <title>logo-blue-no-text</title>
    <desc>Created with Sketch.</desc>
    <defs></defs>
    <g id="Page-1" stroke="none" stroke-width="1" fill="none" fill-rule="evenodd">
        <g id="brenantec_styleguide" transform="translate(-305.000000, -1031.000000)">
            <g id="logo-blue-no-text" transform="translate(306.000000, 1032.000000)">
                <circle id="Oval-blue" stroke="#0A579A" cx="22.5" cy="22.5" r="22.5"></circle>
                <g id="lotus-blue" transform="translate(8.000000, 9.000000)" fill-rule="nonzero" fill="#0A579A">
                    <path d="M29.4318129,12.8960819 C27.6376023,12.8333333 25.8820468,13.097076 24.2325731,13.6606433 C24.1997661,11.8989474 23.845848,10.1719298 23.1768421,8.51625731 C23.0675439,8.24590643 22.7601754,8.11526316 22.4892982,8.22444444 C21.444386,8.64660819 20.4657895,9.17982456 19.5610526,9.81736842 C18.4749708,7.67526316 17.0588889,5.72321637 15.3435673,4.00853801 C15.1372515,3.80233918 14.8029825,3.80233918 14.5968421,4.00859649 C12.8807602,5.72467836 11.4647953,7.67643275 10.3795322,9.81654971 C9.47532164,9.1794152 8.4971345,8.64643275 7.45251462,8.22444444 C7.18192982,8.11520468 6.87432749,8.24584795 6.76502924,8.51625731 C6.09491228,10.1746199 5.74081871,11.9045029 5.70894737,13.6691813 C4.0819883,13.1100585 2.32871345,12.8326901 0.509707602,12.8960819 C0.218187135,12.9063158 -0.0098245614,13.1508187 0.000350877193,13.4422807 C0.273274854,21.257193 6.71719298,27.4285965 14.4769006,27.4285965 C14.6407018,27.4285965 14.8059064,27.425614 14.9708187,27.4201754 C15.1361404,27.425731 15.3005848,27.4285965 15.4647953,27.4285965 C23.2238012,27.4285965 29.6684211,21.2567836 29.9412865,13.4422807 C29.951345,13.1508187 29.7233333,12.9062573 29.4318129,12.8960819 Z M7.55222222,9.41526316 C9.0402924,10.0851462 10.3738596,11.0050292 11.5224561,12.1549123 C12.7555556,13.3873099 13.7226316,14.8276023 14.4010526,16.4375439 C13.9484795,17.6066082 13.6515789,18.8149708 13.5131579,20.0476608 C11.9563743,17.4042105 9.58701754,15.3036257 6.76350877,14.0781287 C6.74619883,12.4859649 7.01087719,10.921345 7.55222222,9.41526316 Z M1.08538012,13.9433918 C4.47444444,13.9578947 7.68578947,15.2283041 10.1785965,17.5529825 C12.6715789,19.8777193 14.1629825,22.9921637 14.4136842,26.3722807 C7.42725146,26.3394152 1.6054386,20.9105263 1.08538012,13.9433918 Z M12.2693567,11.4081287 C11.9381871,11.0766082 11.5924561,10.7632749 11.2334503,10.4676023 C12.2007602,8.51695906 13.4552632,6.72766082 14.9703509,5.13795322 C16.4846199,6.72654971 17.7390058,8.51596491 18.707076,10.4684211 C18.3484211,10.7638012 18.0029825,11.0767251 17.6720468,11.4078947 C16.5707018,12.508655 15.665614,13.764152 14.9707018,15.1504678 C14.2763743,13.7648538 13.371345,12.5094152 12.2693567,11.4081287 Z M14.968655,23.4625146 C14.831345,22.9733918 14.6692398,22.4950292 14.4835088,22.0287719 C14.4800585,21.9159649 14.4783041,21.7967251 14.4783041,21.6659649 C14.4783041,19.9351462 14.8087135,18.2404094 15.4602339,16.628655 C16.1426901,14.9399415 17.1380702,13.4347368 18.4189474,12.1546784 C19.5680702,11.0048538 20.9018129,10.0850292 22.3897661,9.41526316 C22.9298246,10.9180702 23.194386,12.4791228 23.1783626,14.0676608 C21.6742105,14.7183626 20.2768421,15.6295322 19.0427485,16.7804094 C17.067193,18.6225731 15.6756725,20.9249708 14.968655,23.4625146 Z M15.5278947,26.3722222 C15.778655,22.9921637 17.269883,19.8777193 19.762924,17.552924 C22.2559649,15.2280702 25.4667836,13.9576608 28.8561988,13.9433333 C28.3360234,20.9109357 22.5149123,26.3400585 15.5278947,26.3722222 Z" id="Shape"></path>
                    <circle id="Oval" cx="0.823859649" cy="10.8249123" r="1"></circle>
                    <circle id="Oval" cx="7.2548538" cy="4.96146199" r="1"></circle>
                    <circle id="Oval" cx="14.9702924" cy="0.584912281" r="1"></circle>
                    <circle id="Oval" cx="22.687076" cy="4.96146199" r="1"></circle>
                    <circle id="Oval" cx="29.1167251" cy="10.8249123" r="1"></circle>
                </g>
            </g>
        </g>
    </g>
</svg>