<?xml version="1.0" encoding="iso-8859-1"?>
<!-- Generator: Adobe Illustrator 19.1.0, SVG Export Plug-In . SVG Version: 6.00 Build 0)  -->
<svg version="1.1" id="Capa_1" xmlns="http://www.w3.org/2000/svg" xmlns:xlink="http://www.w3.org/1999/xlink" x="0px" y="0px"
	 viewBox="0 0 285.999 285.999" style="enable-background:new 0 0 285.999 285.999;" xml:space="preserve">
<g>
	<g id="Layer_1_21_">
		<g>
			<g>
				<g>
					<path d="M103.776,203.608h-9.978l12.367,40.453c0.616,2.003-0.501,4.118-2.504,4.735c-0.385,0.116-0.771,0.154-1.117,0.154
						c-1.618,0-3.121-1.04-3.622-2.654l-13.099-42.688H53.151l-12.174,42.996c-0.462,1.691-2.003,2.774-3.66,2.774
						c-0.347,0-0.693-0.039-1.04-0.154c-2.003-0.578-3.198-2.658-2.62-4.662l12.675-44.73l-17.53-58.098
						c-0.578-2.003,0.539-4.118,2.543-4.7c2.003-0.616,4.161,0.501,4.739,2.504l17.029,56.438h50.663
						c2.08,0,3.776,1.734,3.776,3.814C107.551,201.913,105.856,203.608,103.776,203.608z"/>
				</g>
				<g>
					<path d="M254.604,141.734l-17.53,58.098l12.675,44.73c0.578,2.003-0.616,4.084-2.62,4.662c-0.347,0.116-0.693,0.154-1.04,0.154
						c-1.657,0-3.198-1.079-3.66-2.774l-12.174-42.996h-32.671l-13.099,42.688c-0.501,1.618-2.003,2.654-3.622,2.654
						c-0.347,0-0.732-0.039-1.117-0.154c-2.003-0.616-3.121-2.735-2.504-4.735l12.367-40.453h-9.94
						c-2.119,0-3.814-1.695-3.814-3.814c0-2.08,1.695-3.814,3.814-3.814h50.624l17.029-56.438c0.578-2.007,2.735-3.159,4.739-2.504
						C254.068,137.612,255.182,139.731,254.604,141.734z"/>
				</g>
				<g>
					<path d="M181.677,174.944h-36.292v-80.02c0-2.123-1.695-3.814-3.814-3.814c-2.08,0-3.776,1.691-3.776,3.814v80.02h-36.909
						c-2.119,0-3.814,1.695-3.814,3.776c0,2.119,1.695,3.81,3.814,3.81h36.909v48.047H124.58c-8.014,0-11.481,8.553-12.29,13.596
						c-0.154,1.117,0.154,2.235,0.886,3.044c0.732,0.851,1.772,1.352,2.89,1.352h51.048c1.117,0,2.157-0.501,2.889-1.352
						c0.732-0.809,1.04-1.926,0.848-3.044c-0.771-5.047-4.238-13.596-12.251-13.596h-13.215V182.53h36.292
						c2.119,0,3.814-1.691,3.814-3.81C185.487,176.639,183.796,174.944,181.677,174.944z M158.599,238.205
						c1.426,0,2.504,1.271,3.275,2.778h-40.569c0.771-1.506,1.849-2.778,3.275-2.778H158.599z"/>
				</g>
				<g>
					<path d="M267.202,82.441c-1.117-2.312-28.24-56.981-124.21-56.981C47.06,25.46,19.899,80.13,18.82,82.441
						c-0.578,1.156-0.501,2.543,0.193,3.66c0.693,1.117,1.926,1.772,3.236,1.772h241.524c1.31,0,2.504-0.655,3.198-1.772
						C267.668,84.984,267.745,83.597,267.202,82.441z M29.034,80.28C32.578,75.198,39.166,67.3,49.8,59.441
						c16.258-12.02,45.654-26.356,93.196-26.356c73.124,0,104.369,33.711,113.923,47.195H29.034z"/>
				</g>
			</g>
			<g>
				<path d="M282.2,260.539H3.799c-2.1,0-3.799-1.699-3.799-3.799c0-2.1,1.699-3.799,3.799-3.799H282.2
					c2.1,0,3.799,1.699,3.799,3.799C285.999,258.84,284.3,260.539,282.2,260.539z"/>
			</g>
		</g>
	</g>
</g>
<g>
</g>
<g>
</g>
<g>
</g>
<g>
</g>
<g>
</g>
<g>
</g>
<g>
</g>
<g>
</g>
<g>
</g>
<g>
</g>
<g>
</g>
<g>
</g>
<g>
</g>
<g>
</g>
<g>
</g>
</svg>
