<?xml version="1.0" encoding="iso-8859-1"?>
<!-- Generator: Adobe Illustrator 17.1.0, SVG Export Plug-In . SVG Version: 6.00 Build 0)  -->
<!DOCTYPE svg PUBLIC "-//W3C//DTD SVG 1.1//EN" "http://www.w3.org/Graphics/SVG/1.1/DTD/svg11.dtd">
<svg xmlns="http://www.w3.org/2000/svg" xmlns:xlink="http://www.w3.org/1999/xlink" version="1.1" id="Capa_1" x="0px" y="0px" viewBox="0 0 210.316 210.316" style="enable-background:new 0 0 210.316 210.316;" xml:space="preserve" width="512px" height="512px">
<path d="M95.857,210.316c-4.123,0-8.29-0.541-12.306-1.78c-7.968-2.459-21.952-8.948-26.095-24.78  c-4.557-17.41,6.853-27.353,8.168-28.429c6.004-4.912,16.785-8.014,27.412-0.592c7.011,4.897,6.945,12.288,5.931,15.512  c-0.522,1.661-1.389,2.503-2.576,2.503c-1.08,0-1.713-0.642-3.099-2.047c-1.976-2.003-5.651-5.731-9.396-5.956  c-2.83-0.171-5.307,0.683-6.964,2.401c-1.87,1.938-2.666,4.977-2.3,8.787c0.37,3.863,2.21,7.268,5.182,9.589  c3.586,2.801,8.442,3.838,14.03,2.999c11.687-1.753,18.349-16.886,17.8-26.534c-0.563-9.92-8.246-19.633-19.742-25.14  c-0.031-0.014-0.062-0.028-0.091-0.043c-0.521-0.248-1.049-0.487-1.585-0.717c-1.778-0.765-3.586-1.5-5.396-2.237  c-12.04-4.9-24.49-9.968-29.447-23.801c-5.424-15.136,3.117-28.134,12.08-34.666c3.953-2.881,10.049-6.664,15.427-10.002  c4.519-2.804,8.786-5.453,10.096-6.543c2.104-1.753,1.365-5.035-0.254-7.483c-0.697,2.182-1.928,4.583-4.094,6.05  c-3.672,2.487-10.074,2.949-15.724,3.356c-1.041,0.075-2.043,0.147-2.972,0.23c-5.176,0.46-9.902,2.383-11.896,4.044  c-3.085,2.571-6.72,3.318-11.113,2.285c-5.42-1.275-6.662-6.793-6.712-7.027c-0.173-0.804,0.165-1.632,0.851-2.086  c0.136-0.09,13.681-9.135,19.623-18.643c2.281-3.65,3.635-8.019,4.944-12.244c2.224-7.178,4.324-13.958,10.713-16.207  c2.794-0.984,4.916-1.634,6.534-2.006l-1.464-2.459c-0.42-0.706-0.366-1.596,0.136-2.246c0.502-0.65,1.353-0.926,2.139-0.699  l7.819,2.261V2c0-0.741,0.41-1.421,1.065-1.768c0.654-0.346,1.449-0.302,2.061,0.115l10.333,7.04l7.285-4.241  c0.573-0.335,1.278-0.361,1.877-0.072c0.6,0.29,1.015,0.859,1.108,1.518l1.18,8.251l8.895,1.953  c0.543,0.119,1.012,0.458,1.294,0.938c0.282,0.478,0.353,1.053,0.194,1.585l-2.022,6.812l8.219,7.655  c0.436,0.406,0.668,0.985,0.634,1.58c-0.035,0.594-0.333,1.143-0.813,1.495l-8.705,6.398c3.071,4.011,10.476,14.484,11.63,23.615  c1.635,12.931-3.728,21.623-7.07,25.653c-2.66,3.208-5.062,5.773-6.531,7.286c1.79,1.482,4.342,3.089,5.951,2.637  c1.62-0.456,4.02-6.504,5.083-11.607c0.157-0.755,0.735-1.353,1.484-1.536c0.751-0.183,1.538,0.083,2.024,0.681  c0.035,0.042,3.933,4.698,9.439,5.016c5.915,0.334,13.91-3.627,13.99-3.667c0.9-0.448,1.986-0.162,2.549,0.666  c0.563,0.829,0.425,1.947-0.322,2.615c-3.966,3.543-7.712,8.621-6.968,10.533c0.849,2.182,8.068,4.006,12.955,4.484  c0.981,0.096,1.747,0.894,1.802,1.879s-0.616,1.863-1.582,2.068c-5.229,1.109-10.409,3.19-11.031,4.417  c0.397,1.323,5.517,4.132,10.71,5.853c0.907,0.301,1.476,1.202,1.354,2.15c-0.12,0.949-0.896,1.679-1.85,1.744  c-5.069,0.342-10.264,1.628-10.899,2.699c-0.592,1.347,1.03,4.801,2.432,6.771c0.494,0.695,0.493,1.626-0.002,2.321  c-0.496,0.694-1.379,0.997-2.193,0.757l-11.875-3.5c-0.04-0.012-0.079-0.025-0.118-0.039c-1.667-0.599-3.559-0.725-3.937-0.406l0,0  c0.006,0-0.152,0.365,0.167,1.472c0.286,0.992,0.657,2.11,1.051,3.294c0.381,1.146,0.796,2.396,1.208,3.754  c0.008,0.024,0.016,0.049,0.023,0.074c0.005,0.017,0.01,0.034,0.015,0.05c1.436,4.761,2.811,10.826,2.49,18.315  c-0.001,0.047-0.003,0.094-0.006,0.14c-0.106,2.333-0.377,4.804-0.861,7.416c-0.639,3.443-1.614,6.689-2.839,9.719  c-0.023,0.077-0.052,0.153-0.084,0.229c-0.021,0.045-0.041,0.089-0.064,0.132c-4.649,11.254-12.741,19.507-19.79,23.936  C115.792,207.067,105.958,210.316,95.857,210.316z M79.699,154.267c-6.017,0-10.389,3.212-11.542,4.156  c-1.112,0.91-10.756,9.325-6.832,24.321c3.653,13.958,16.232,19.756,23.405,21.97c12.573,3.881,27.266,0.015,35.596-5.22  c6.147-3.863,13.157-10.891,17.521-20.449l-8.989-3.928c-1.012-0.442-1.475-1.621-1.032-2.633c0.443-1.013,1.623-1.475,2.634-1.032  l8.895,3.886c0.816-2.28,1.479-4.684,1.945-7.203c0.313-1.681,0.529-3.296,0.667-4.846h-9.808c-1.104,0-2-0.896-2-2s0.896-2,2-2  h9.996c0.024-5.167-0.813-9.546-1.839-13.292l-8.591,2.538c-1.056,0.313-2.172-0.292-2.484-1.351  c-0.313-1.06,0.292-2.172,1.352-2.485l8.566-2.531c-0.2-0.618-0.398-1.215-0.591-1.793c-0.406-1.223-0.79-2.378-1.099-3.446  c-0.867-3.007,0.036-4.653,0.946-5.503c2.407-2.249,6.932-0.823,7.973-0.453l7.202,2.123c-0.79-2.012-1.255-4.345-0.405-6.277  c0.892-2.025,3.803-3.257,6.898-4.004c-3.28-1.687-6.3-3.919-6.558-6.491c-0.275-2.759,2.616-4.815,6.174-6.287  c-3.519-1.054-7.003-2.75-8.048-5.437c-1.037-2.668,0.407-5.899,2.369-8.697c-2.59,0.72-5.478,1.248-8.12,1.094  c-4.143-0.239-7.486-2.218-9.638-3.929c-1.194,4.237-3.485,10.221-7.081,11.232c-5.01,1.406-10.727-4.379-11.362-5.043  c-0.76-0.795-0.734-2.056,0.057-2.82c0.036-0.035,3.604-3.493,7.726-8.463c2.929-3.531,7.626-11.164,6.18-22.597  c-1.284-10.161-11.946-23.093-12.054-23.223c-0.353-0.424-0.514-0.974-0.447-1.521c0.067-0.547,0.356-1.042,0.801-1.368l8.43-6.196  l-7.358-6.854c-0.556-0.518-0.771-1.305-0.554-2.033l1.763-5.938l-8.149-1.789c-0.815-0.179-1.434-0.845-1.551-1.671l-0.955-6.686  l-5.81,3.381c-0.666,0.389-1.495,0.358-2.132-0.076l-8.249-5.62v2.842c0,0.629-0.296,1.221-0.798,1.599  c-0.503,0.378-1.154,0.497-1.758,0.323l-5.511-1.594l0.32,0.539c0.154,0.196,0.272,0.424,0.369,0.681  c0.363,0.97-0.073,2.057-1.007,2.505c-0.53,0.255-1.121,0.256-1.631,0.045c-0.539,0.022-2.433,0.266-7.821,2.163  c-4.491,1.582-6.22,7.16-8.221,13.618c-1.384,4.469-2.815,9.09-5.372,13.181c-5.339,8.542-15.822,16.368-19.507,18.964  c0.498,1.013,1.478,2.358,3.269,2.779c3.172,0.746,5.526,0.294,7.637-1.465c2.395-1.996,7.83-4.398,14.104-4.956  c0.949-0.084,1.973-0.158,3.037-0.235c4.894-0.353,10.983-0.792,13.768-2.679c2.953-2,3.246-7.736,3.248-7.793  c0.032-0.855,0.604-1.595,1.424-1.841c0.82-0.246,1.705,0.057,2.203,0.753l2.5,3.5c3.431,4.803,3.339,10.231-0.223,13.199  c-1.523,1.27-5.506,3.741-10.547,6.869c-5.318,3.301-11.347,7.042-15.181,9.835c-7.846,5.718-15.349,17.028-10.67,30.084  c0.852,2.377,1.961,4.461,3.283,6.313l10.042-9.204c0.815-0.747,2.081-0.69,2.826,0.124c0.746,0.814,0.691,2.079-0.123,2.826  l-10.173,9.322c2.969,3.04,6.609,5.361,10.607,7.373l6.675-10.882c0.578-0.941,1.811-1.236,2.751-0.659  c0.941,0.578,1.236,1.809,0.659,2.75l-6.446,10.507c2.301,1.026,4.68,1.994,7.088,2.974c1.746,0.711,3.49,1.421,5.209,2.156  l4.222-12.172c0.363-1.044,1.505-1.596,2.545-1.234c1.044,0.362,1.597,1.501,1.234,2.545l-4.363,12.582  c11.932,6.261,19.834,16.843,20.453,27.74c0.647,11.401-7.104,28.602-21.2,30.716c-6.609,0.991-12.678-0.358-17.087-3.803  c-3.845-3.003-6.225-7.393-6.701-12.359c-0.606-6.329,1.516-9.99,3.403-11.946c2.482-2.573,6.048-3.859,10.083-3.617  c4.79,0.288,8.839,3.974,11.304,6.435c0.117-2.424-0.567-6.291-4.694-9.173C86.745,155.221,82.978,154.267,79.699,154.267z   M115.67,87.625c-0.545,0-1.087-0.221-1.481-0.655c-0.742-0.818-0.682-2.083,0.136-2.825c0.153-0.141,8.428-7.813,8.428-15.77  c0-8.139-8.511-18.093-8.597-18.192c-0.721-0.836-0.629-2.099,0.206-2.82c0.837-0.721,2.097-0.631,2.82,0.204  c0.391,0.452,9.57,11.174,9.57,20.809c0,9.773-9.341,18.369-9.738,18.73C116.631,87.453,116.149,87.625,115.67,87.625z   M78.057,42.151c-3.446,0-6.25-2.804-6.25-6.25s2.804-6.25,6.25-6.25s6.25,2.804,6.25,6.25S81.503,42.151,78.057,42.151z   M78.057,33.651c-1.24,0-2.25,1.009-2.25,2.25s1.01,2.25,2.25,2.25s2.25-1.009,2.25-2.25S79.297,33.651,78.057,33.651z" fill="#dcae1d"/>
<g>
</g>
<g>
</g>
<g>
</g>
<g>
</g>
<g>
</g>
<g>
</g>
<g>
</g>
<g>
</g>
<g>
</g>
<g>
</g>
<g>
</g>
<g>
</g>
<g>
</g>
<g>
</g>
<g>
</g>
</svg>
