<?xml version="1.0" encoding="iso-8859-1"?>
<!-- Generator: Adobe Illustrator 19.0.0, SVG Export Plug-In . SVG Version: 6.00 Build 0)  -->
<svg xmlns="http://www.w3.org/2000/svg" xmlns:xlink="http://www.w3.org/1999/xlink" version="1.1" id="Layer_1" x="0px" y="0px" viewBox="0 0 512 512" style="enable-background:new 0 0 512 512;" xml:space="preserve" width="512px" height="512px">
<g>
	<g>
		<path d="M368.619,333.843h-9.095v-89.881H38.52v89.881h-9.095C13.2,333.843,0,347.043,0,363.269v147.126h48.15v-32.1h301.743v32.1    h48.15V363.269C398.044,347.043,384.844,333.843,368.619,333.843z M54.571,260.013h288.903v73.831h-20.865v-37.45    c0-10.325-8.401-18.725-18.725-18.725h-74.901c-10.325,0-18.725,8.401-18.725,18.725v37.45h-22.47v-37.45    c0-10.325-8.401-18.725-18.725-18.725H94.161c-10.325,0-18.725,8.401-18.725,18.725v37.45H54.571V260.013z M306.558,296.393v37.45    h-80.251v-37.45c0-1.474,1.201-2.675,2.675-2.675h74.901C305.357,293.718,306.558,294.918,306.558,296.393z M171.737,296.393    v37.45H91.486v-37.45c0-1.474,1.201-2.675,2.675-2.675h74.901C170.536,293.718,171.737,294.918,171.737,296.393z M381.994,494.345    h-16.05v-32.1H32.1v32.1H16.05v-65.806h365.944V494.345z M381.994,412.489H16.05v-49.22c0-7.376,6-13.375,13.375-13.375h9.095    h321.003h9.095c7.376,0,13.375,6,13.375,13.375V412.489z" fill="#4a4a4a"/>
	</g>
</g>
<g>
	<g>
		<path d="M471.875,277.668H512l-24.763-72.226h-49.984l-24.763,72.226h43.335v33.705h-16.05v16.05h48.15v-16.05h-16.05V277.668z     M434.959,261.618l13.757-40.125h27.056l13.757,40.125H434.959z" fill="#4a4a4a"/>
	</g>
</g>
<g>
	<g>
		<path d="M407.674,333.843v96.301h16.05v-48.15h70.621v48.15h16.05v-96.301H407.674z M494.345,365.944h-70.621v-16.05h70.621    V365.944z" fill="#4a4a4a"/>
	</g>
</g>
<g>
	<g>
		<path d="M110.746,1.605v168.259h288.903V1.605H110.746z M383.599,153.814H126.796V17.655h256.802V153.814z" fill="#4a4a4a"/>
	</g>
</g>
<g>
	<g>
		<polygon points="362.956,144.613 372.141,131.45 298.478,80.057 276.605,95.681 234.505,63.906 138.237,131.463 147.456,144.6     234.16,83.755 314.564,144.436 324.232,131.626 290.033,105.814 298.587,99.705   " fill="#4a4a4a"/>
	</g>
</g>
<g>
	<g>
		<path d="M276.063,25.68c-13.276,0-24.075,10.8-24.075,24.075s10.8,24.075,24.075,24.075s24.075-10.8,24.075-24.075    S289.338,25.68,276.063,25.68z M276.063,57.781c-4.426,0-8.025-3.6-8.025-8.025c0-4.426,3.6-8.025,8.025-8.025    s8.025,3.599,8.025,8.025C284.088,54.181,280.488,57.781,276.063,57.781z" fill="#4a4a4a"/>
	</g>
</g>
<g>
	<g>
		<rect x="174.947" y="33.705" width="60.991" height="16.05" fill="#4a4a4a"/>
	</g>
</g>
<g>
	<g>
		<rect x="142.846" y="57.781" width="48.151" height="16.05" fill="#4a4a4a"/>
	</g>
</g>
<g>
	<g>
		<rect x="319.398" y="33.705" width="31.547" height="16.05" fill="#4a4a4a"/>
	</g>
</g>
<g>
	<g>
		<rect x="342.639" y="57.781" width="24.906" height="16.05" fill="#4a4a4a"/>
	</g>
</g>
<g>
</g>
<g>
</g>
<g>
</g>
<g>
</g>
<g>
</g>
<g>
</g>
<g>
</g>
<g>
</g>
<g>
</g>
<g>
</g>
<g>
</g>
<g>
</g>
<g>
</g>
<g>
</g>
<g>
</g>
</svg>
